<svg width="782.813" height="90.039" viewBox="0 0 782.813 90.039" xmlns="http://www.w3.org/2000/svg"><g id="svgGroup" stroke-linecap="round" fill-rule="evenodd" font-size="9pt" stroke="#ffffff" stroke-width="0.25mm" fill="#ffffff" style="stroke:#ffffff;stroke-width:0.25mm;fill:#ffffff"><path d="M 444.434 70.02 L 438.428 70.02 L 438.428 33.398 Q 438.428 31.592 437.744 30.005 A 8.758 8.758 0 0 0 435.889 27.246 Q 434.717 26.074 433.13 25.391 Q 431.543 24.707 429.736 24.707 L 426.758 24.707 Q 424.951 24.707 423.364 25.391 A 9.058 9.058 0 0 0 420.581 27.246 A 8.558 8.558 0 0 0 418.701 30.005 Q 418.018 31.592 418.018 33.398 L 418.018 70.02 L 412.061 70.02 L 412.061 33.398 Q 412.061 31.592 411.377 30.005 Q 410.694 28.418 409.497 27.246 A 9.058 9.058 0 0 0 406.714 25.391 Q 405.127 24.707 403.32 24.707 L 400.342 24.707 Q 398.535 24.707 396.948 25.391 A 8.758 8.758 0 0 0 394.19 27.246 Q 393.018 28.418 392.334 30.005 Q 391.651 31.592 391.651 33.398 L 391.651 70.02 L 385.645 70.02 L 385.645 20.02 L 387.647 20.02 L 390.918 25.098 A 15.011 15.011 0 0 1 396.07 20.679 Q 399.17 19.043 402.832 19.043 L 403.32 19.043 A 14.748 14.748 0 0 1 408.884 20.081 A 14.023 14.023 0 0 1 410.986 21.143 A 14.429 14.429 0 0 1 416.26 26.709 A 14.311 14.311 0 0 1 418.555 23.584 A 14.859 14.859 0 0 1 421.582 21.167 Q 423.242 20.166 425.195 19.604 Q 427.149 19.043 429.248 19.043 L 429.736 19.043 A 14.387 14.387 0 0 1 435.449 20.19 A 14.758 14.758 0 0 1 440.137 23.34 Q 442.139 25.342 443.286 28.027 A 14.387 14.387 0 0 1 444.434 33.74 L 444.434 70.02 Z M 244.727 70.02 L 238.721 70.02 L 238.721 33.398 Q 238.721 31.592 238.037 30.005 A 8.758 8.758 0 0 0 236.182 27.246 Q 235.01 26.074 233.423 25.391 Q 231.836 24.707 230.029 24.707 L 226.026 24.707 Q 224.219 24.707 222.632 25.391 A 8.758 8.758 0 0 0 219.873 27.246 Q 218.701 28.418 218.018 30.005 Q 217.334 31.592 217.334 33.398 L 217.334 70.02 L 211.328 70.02 L 211.328 0 L 217.334 0 L 217.334 24.219 Q 219.385 21.777 222.266 20.41 Q 225.147 19.043 228.516 19.043 L 230.029 19.043 A 14.387 14.387 0 0 1 235.742 20.19 A 14.758 14.758 0 0 1 240.43 23.34 Q 242.432 25.342 243.579 28.027 A 14.387 14.387 0 0 1 244.727 33.74 L 244.727 70.02 Z M 535.254 70.02 L 529.248 70.02 L 529.248 33.398 Q 529.248 31.592 528.565 30.005 A 8.758 8.758 0 0 0 526.709 27.246 Q 525.537 26.074 523.95 25.391 Q 522.363 24.707 520.557 24.707 L 516.553 24.707 Q 514.746 24.707 513.159 25.391 A 8.758 8.758 0 0 0 510.401 27.246 Q 509.229 28.418 508.545 30.005 Q 507.861 31.592 507.861 33.398 L 507.861 70.02 L 501.856 70.02 L 501.856 0 L 507.861 0 L 507.861 24.219 Q 509.912 21.777 512.793 20.41 Q 515.674 19.043 519.043 19.043 L 520.557 19.043 A 14.387 14.387 0 0 1 526.27 20.19 A 14.758 14.758 0 0 1 530.957 23.34 Q 532.959 25.342 534.107 28.027 A 14.387 14.387 0 0 1 535.254 33.74 L 535.254 70.02 Z M 19.19 70.996 L 15.186 70.996 A 14.919 14.919 0 0 1 9.4 69.849 A 15.416 15.416 0 0 1 4.566 66.699 A 15.517 15.517 0 0 1 1.245 62.012 A 13.418 13.418 0 0 1 0 56.299 L 0 54.297 L 6.006 53.32 L 6.006 56.641 Q 6.006 58.447 6.763 60.034 Q 7.52 61.621 8.789 62.793 A 9.751 9.751 0 0 0 11.719 64.648 A 9.018 9.018 0 0 0 15.186 65.332 L 19.19 65.332 Q 20.996 65.332 22.656 64.795 A 9.77 9.77 0 0 0 25.176 63.573 A 9.079 9.079 0 0 0 25.611 63.257 Q 26.904 62.256 27.661 60.84 A 6.421 6.421 0 0 0 28.371 58.496 A 7.984 7.984 0 0 0 28.418 57.617 A 10.086 10.086 0 0 0 28.253 55.74 Q 28.047 54.653 27.584 53.781 A 5.779 5.779 0 0 0 27.246 53.223 A 9.537 9.537 0 0 0 24.645 50.681 A 11.228 11.228 0 0 0 24.146 50.366 A 18.583 18.583 0 0 0 21.525 49.084 A 23 23 0 0 0 19.751 48.462 A 397.262 397.262 0 0 0 14.697 46.948 Q 12.11 46.191 9.644 45.215 Q 7.178 44.238 5.249 42.651 A 11.693 11.693 0 0 1 2.308 38.986 A 13.532 13.532 0 0 1 2.149 38.672 A 10.701 10.701 0 0 1 1.307 36.171 Q 1.059 34.999 0.997 33.641 A 20.31 20.31 0 0 1 0.977 32.715 A 13.596 13.596 0 0 1 1.481 28.962 A 12.102 12.102 0 0 1 2.149 27.173 A 13.345 13.345 0 0 1 5.322 22.852 A 14.494 14.494 0 0 1 9.944 20.06 A 16.387 16.387 0 0 1 9.986 20.044 A 15.916 15.916 0 0 1 15.297 19.047 A 18.109 18.109 0 0 1 15.674 19.043 L 19.19 19.043 A 14.387 14.387 0 0 1 24.903 20.19 A 14.758 14.758 0 0 1 29.59 23.34 Q 31.592 25.342 32.739 28.027 A 14.387 14.387 0 0 1 33.887 33.74 L 33.887 33.936 L 27.881 34.912 L 27.881 33.398 Q 27.881 31.592 27.197 30.005 A 8.758 8.758 0 0 0 25.342 27.246 Q 24.17 26.074 22.583 25.391 Q 20.996 24.707 19.19 24.707 L 15.674 24.707 A 10.787 10.787 0 0 0 13.011 25.028 A 9.789 9.789 0 0 0 12.28 25.244 A 8.61 8.61 0 0 0 10.254 26.229 A 7.714 7.714 0 0 0 9.522 26.782 A 7.333 7.333 0 0 0 7.666 29.199 A 6.85 6.85 0 0 0 7.049 31.331 A 8.669 8.669 0 0 0 6.983 32.422 A 9.351 9.351 0 0 0 7.147 34.229 Q 7.362 35.318 7.856 36.18 A 5.448 5.448 0 0 0 8.154 36.646 A 9.475 9.475 0 0 0 10.447 38.888 A 11.434 11.434 0 0 0 11.255 39.404 A 19.252 19.252 0 0 0 13.876 40.665 A 24.013 24.013 0 0 0 15.65 41.284 Q 18.115 42.041 20.679 42.847 A 59.741 59.741 0 0 1 25.708 44.678 A 17.115 17.115 0 0 1 29.674 46.969 A 15.956 15.956 0 0 1 30.103 47.314 Q 32.031 48.926 33.203 51.343 A 10.904 10.904 0 0 1 34.044 53.861 Q 34.292 55.038 34.354 56.398 A 20.338 20.338 0 0 1 34.375 57.324 A 13.055 13.055 0 0 1 33.824 61.161 A 11.796 11.796 0 0 1 33.154 62.866 Q 31.934 65.381 29.834 67.188 A 15.393 15.393 0 0 1 25.169 69.924 A 17.433 17.433 0 0 1 24.976 69.995 Q 22.217 70.996 19.19 70.996 Z M 184.619 70.996 L 180.615 70.996 A 14.919 14.919 0 0 1 174.829 69.849 A 15.416 15.416 0 0 1 169.995 66.699 A 15.517 15.517 0 0 1 166.675 62.012 A 13.418 13.418 0 0 1 165.43 56.299 L 165.43 54.297 L 171.436 53.32 L 171.436 56.641 Q 171.436 58.447 172.193 60.034 Q 172.949 61.621 174.219 62.793 A 9.751 9.751 0 0 0 177.149 64.648 A 9.018 9.018 0 0 0 180.615 65.332 L 184.619 65.332 Q 186.426 65.332 188.086 64.795 A 9.77 9.77 0 0 0 190.606 63.573 A 9.079 9.079 0 0 0 191.04 63.257 Q 192.334 62.256 193.091 60.84 A 6.421 6.421 0 0 0 193.801 58.496 A 7.984 7.984 0 0 0 193.848 57.617 A 10.086 10.086 0 0 0 193.683 55.74 Q 193.477 54.653 193.014 53.781 A 5.779 5.779 0 0 0 192.676 53.223 A 9.537 9.537 0 0 0 190.074 50.681 A 11.228 11.228 0 0 0 189.575 50.366 A 18.583 18.583 0 0 0 186.955 49.084 A 23 23 0 0 0 185.181 48.462 A 397.262 397.262 0 0 0 180.127 46.948 Q 177.539 46.191 175.073 45.215 Q 172.608 44.238 170.679 42.651 A 11.693 11.693 0 0 1 167.737 38.986 A 13.532 13.532 0 0 1 167.578 38.672 A 10.701 10.701 0 0 1 166.737 36.171 Q 166.489 34.999 166.427 33.641 A 20.31 20.31 0 0 1 166.406 32.715 A 13.596 13.596 0 0 1 166.911 28.962 A 12.102 12.102 0 0 1 167.578 27.173 A 13.345 13.345 0 0 1 170.752 22.852 A 14.494 14.494 0 0 1 175.374 20.06 A 16.387 16.387 0 0 1 175.415 20.044 A 15.916 15.916 0 0 1 180.727 19.047 A 18.109 18.109 0 0 1 181.104 19.043 L 184.619 19.043 A 14.387 14.387 0 0 1 190.332 20.19 A 14.758 14.758 0 0 1 195.02 23.34 Q 197.022 25.342 198.169 28.027 A 14.387 14.387 0 0 1 199.317 33.74 L 199.317 33.936 L 193.311 34.912 L 193.311 33.398 Q 193.311 31.592 192.627 30.005 A 8.758 8.758 0 0 0 190.772 27.246 Q 189.6 26.074 188.013 25.391 Q 186.426 24.707 184.619 24.707 L 181.104 24.707 A 10.787 10.787 0 0 0 178.44 25.028 A 9.789 9.789 0 0 0 177.71 25.244 A 8.61 8.61 0 0 0 175.684 26.229 A 7.714 7.714 0 0 0 174.951 26.782 A 7.333 7.333 0 0 0 173.096 29.199 A 6.85 6.85 0 0 0 172.479 31.331 A 8.669 8.669 0 0 0 172.412 32.422 A 9.351 9.351 0 0 0 172.577 34.229 Q 172.792 35.318 173.286 36.18 A 5.448 5.448 0 0 0 173.584 36.646 A 9.475 9.475 0 0 0 175.877 38.888 A 11.434 11.434 0 0 0 176.685 39.404 A 19.252 19.252 0 0 0 179.305 40.665 A 24.013 24.013 0 0 0 181.079 41.284 Q 183.545 42.041 186.109 42.847 A 59.741 59.741 0 0 1 191.138 44.678 A 17.115 17.115 0 0 1 195.104 46.969 A 15.956 15.956 0 0 1 195.532 47.314 Q 197.461 48.926 198.633 51.343 A 10.904 10.904 0 0 1 199.474 53.861 Q 199.722 55.038 199.784 56.398 A 20.338 20.338 0 0 1 199.805 57.324 A 13.055 13.055 0 0 1 199.254 61.161 A 11.796 11.796 0 0 1 198.584 62.866 Q 197.363 65.381 195.264 67.188 A 15.393 15.393 0 0 1 190.599 69.924 A 17.433 17.433 0 0 1 190.405 69.995 Q 187.647 70.996 184.619 70.996 Z M 626.074 70.02 L 620.069 70.02 L 620.069 33.398 Q 620.069 31.592 619.385 30.005 A 8.758 8.758 0 0 0 617.529 27.246 Q 616.358 26.074 614.771 25.391 Q 613.184 24.707 611.377 24.707 L 607.373 24.707 Q 605.567 24.707 603.98 25.391 A 8.758 8.758 0 0 0 601.221 27.246 Q 600.049 28.418 599.365 30.005 Q 598.682 31.592 598.682 33.398 L 598.682 70.02 L 592.676 70.02 L 592.676 20.02 L 594.678 20.02 L 597.949 25.098 A 15.011 15.011 0 0 1 603.101 20.679 Q 606.201 19.043 609.863 19.043 L 611.377 19.043 A 14.387 14.387 0 0 1 617.09 20.19 A 14.758 14.758 0 0 1 621.778 23.34 Q 623.779 25.342 624.927 28.027 A 14.387 14.387 0 0 1 626.074 33.74 L 626.074 70.02 Z M 762.305 70.02 L 756.299 70.02 L 756.299 33.398 Q 756.299 31.592 755.615 30.005 A 8.758 8.758 0 0 0 753.76 27.246 Q 752.588 26.074 751.001 25.391 Q 749.414 24.707 747.608 24.707 L 743.604 24.707 Q 741.797 24.707 740.21 25.391 A 8.758 8.758 0 0 0 737.451 27.246 Q 736.279 28.418 735.596 30.005 Q 734.912 31.592 734.912 33.398 L 734.912 70.02 L 728.906 70.02 L 728.906 20.02 L 730.908 20.02 L 734.18 25.098 A 15.011 15.011 0 0 1 739.331 20.679 Q 742.432 19.043 746.094 19.043 L 747.608 19.043 A 14.387 14.387 0 0 1 753.32 20.19 A 14.758 14.758 0 0 1 758.008 23.34 Q 760.01 25.342 761.157 28.027 A 14.387 14.387 0 0 1 762.305 33.74 L 762.305 70.02 Z M 475.147 70.996 L 471.143 70.996 A 14.387 14.387 0 0 1 465.43 69.849 A 14.758 14.758 0 0 1 460.742 66.699 Q 458.74 64.697 457.593 62.012 A 14.387 14.387 0 0 1 456.445 56.299 L 456.445 33.74 A 14.387 14.387 0 0 1 457.593 28.027 A 14.758 14.758 0 0 1 460.742 23.34 Q 462.744 21.338 465.43 20.19 A 14.387 14.387 0 0 1 471.143 19.043 L 475.147 19.043 A 14.387 14.387 0 0 1 480.86 20.19 A 14.758 14.758 0 0 1 485.547 23.34 Q 487.549 25.342 488.696 28.027 A 14.387 14.387 0 0 1 489.844 33.74 L 489.844 35.742 L 483.838 36.719 L 483.838 33.398 Q 483.838 31.592 483.154 30.005 A 8.758 8.758 0 0 0 481.299 27.246 Q 480.127 26.074 478.54 25.391 Q 476.953 24.707 475.147 24.707 L 471.143 24.707 Q 469.336 24.707 467.749 25.391 A 8.758 8.758 0 0 0 464.99 27.246 Q 463.819 28.418 463.135 30.005 Q 462.451 31.592 462.451 33.398 L 462.451 56.641 Q 462.451 58.447 463.135 60.034 A 8.758 8.758 0 0 0 464.99 62.793 Q 466.162 63.965 467.749 64.648 Q 469.336 65.332 471.143 65.332 L 475.147 65.332 Q 476.953 65.332 478.54 64.648 A 8.758 8.758 0 0 0 481.299 62.793 Q 482.471 61.621 483.154 60.034 Q 483.838 58.447 483.838 56.641 L 483.838 53.32 L 489.844 54.297 L 489.844 56.299 A 14.387 14.387 0 0 1 488.696 62.012 A 14.758 14.758 0 0 1 485.547 66.699 Q 483.545 68.701 480.86 69.849 A 14.387 14.387 0 0 1 475.147 70.996 Z M 124.707 70.02 L 122.705 70.02 L 119.385 65.039 A 15.542 15.542 0 0 1 114.258 69.36 Q 111.182 70.996 107.52 70.996 L 106.006 70.996 A 14.387 14.387 0 0 1 100.293 69.849 A 14.758 14.758 0 0 1 95.606 66.699 Q 93.604 64.697 92.456 62.012 A 14.387 14.387 0 0 1 91.309 56.299 L 91.309 55.811 A 14.387 14.387 0 0 1 92.456 50.098 A 14.758 14.758 0 0 1 95.606 45.41 Q 97.608 43.408 100.293 42.261 A 14.387 14.387 0 0 1 106.006 41.113 L 118.701 41.113 L 118.701 33.398 Q 118.701 31.592 118.018 30.005 A 8.758 8.758 0 0 0 116.162 27.246 Q 114.99 26.074 113.403 25.391 Q 111.817 24.707 110.01 24.707 L 106.494 24.707 Q 104.688 24.707 103.101 25.391 A 8.758 8.758 0 0 0 100.342 27.246 Q 99.17 28.418 98.486 30.005 Q 97.803 31.592 97.803 33.398 L 97.803 35.205 L 91.797 34.229 L 91.797 33.74 A 14.387 14.387 0 0 1 92.945 28.027 A 14.758 14.758 0 0 1 96.094 23.34 Q 98.096 21.338 100.781 20.19 A 14.387 14.387 0 0 1 106.494 19.043 L 110.01 19.043 A 14.387 14.387 0 0 1 115.723 20.19 A 14.758 14.758 0 0 1 120.41 23.34 Q 122.412 25.342 123.56 28.027 A 14.387 14.387 0 0 1 124.707 33.74 L 124.707 70.02 Z M 373.633 70.02 L 371.631 70.02 L 368.311 65.039 A 15.542 15.542 0 0 1 363.184 69.36 Q 360.108 70.996 356.445 70.996 L 354.932 70.996 A 14.387 14.387 0 0 1 349.219 69.849 A 14.758 14.758 0 0 1 344.531 66.699 Q 342.529 64.697 341.382 62.012 A 14.387 14.387 0 0 1 340.235 56.299 L 340.235 55.811 A 14.387 14.387 0 0 1 341.382 50.098 A 14.758 14.758 0 0 1 344.531 45.41 Q 346.533 43.408 349.219 42.261 A 14.387 14.387 0 0 1 354.932 41.113 L 367.627 41.113 L 367.627 33.398 Q 367.627 31.592 366.944 30.005 A 8.758 8.758 0 0 0 365.088 27.246 Q 363.916 26.074 362.329 25.391 Q 360.742 24.707 358.936 24.707 L 355.42 24.707 Q 353.613 24.707 352.027 25.391 A 8.758 8.758 0 0 0 349.268 27.246 Q 348.096 28.418 347.412 30.005 Q 346.729 31.592 346.729 33.398 L 346.729 35.205 L 340.723 34.229 L 340.723 33.74 A 14.387 14.387 0 0 1 341.87 28.027 A 14.758 14.758 0 0 1 345.02 23.34 Q 347.022 21.338 349.707 20.19 A 14.387 14.387 0 0 1 355.42 19.043 L 358.936 19.043 A 14.387 14.387 0 0 1 364.649 20.19 A 14.758 14.758 0 0 1 369.336 23.34 Q 371.338 25.342 372.486 28.027 A 14.387 14.387 0 0 1 373.633 33.74 L 373.633 70.02 Z M 580.664 70.02 L 578.662 70.02 L 575.342 65.039 A 15.542 15.542 0 0 1 570.215 69.36 Q 567.139 70.996 563.477 70.996 L 561.963 70.996 A 14.387 14.387 0 0 1 556.25 69.849 A 14.758 14.758 0 0 1 551.563 66.699 Q 549.561 64.697 548.413 62.012 A 14.387 14.387 0 0 1 547.266 56.299 L 547.266 55.811 A 14.387 14.387 0 0 1 548.413 50.098 A 14.758 14.758 0 0 1 551.563 45.41 Q 553.565 43.408 556.25 42.261 A 14.387 14.387 0 0 1 561.963 41.113 L 574.658 41.113 L 574.658 33.398 Q 574.658 31.592 573.975 30.005 A 8.758 8.758 0 0 0 572.119 27.246 Q 570.947 26.074 569.361 25.391 Q 567.774 24.707 565.967 24.707 L 562.451 24.707 Q 560.645 24.707 559.058 25.391 A 8.758 8.758 0 0 0 556.299 27.246 Q 555.127 28.418 554.444 30.005 Q 553.76 31.592 553.76 33.398 L 553.76 35.205 L 547.754 34.229 L 547.754 33.74 A 14.387 14.387 0 0 1 548.902 28.027 A 14.758 14.758 0 0 1 552.051 23.34 Q 554.053 21.338 556.738 20.19 A 14.387 14.387 0 0 1 562.451 19.043 L 565.967 19.043 A 14.387 14.387 0 0 1 571.68 20.19 A 14.758 14.758 0 0 1 576.367 23.34 Q 578.369 25.342 579.517 28.027 A 14.387 14.387 0 0 1 580.664 33.74 L 580.664 70.02 Z M 716.895 70.02 L 714.893 70.02 L 711.572 65.039 A 15.542 15.542 0 0 1 706.445 69.36 Q 703.369 70.996 699.707 70.996 L 698.194 70.996 A 14.387 14.387 0 0 1 692.481 69.849 A 14.758 14.758 0 0 1 687.793 66.699 Q 685.791 64.697 684.644 62.012 A 14.387 14.387 0 0 1 683.496 56.299 L 683.496 55.811 A 14.387 14.387 0 0 1 684.644 50.098 A 14.758 14.758 0 0 1 687.793 45.41 Q 689.795 43.408 692.481 42.261 A 14.387 14.387 0 0 1 698.194 41.113 L 710.889 41.113 L 710.889 33.398 Q 710.889 31.592 710.205 30.005 A 8.758 8.758 0 0 0 708.35 27.246 Q 707.178 26.074 705.591 25.391 Q 704.004 24.707 702.197 24.707 L 698.682 24.707 Q 696.875 24.707 695.288 25.391 A 8.758 8.758 0 0 0 692.529 27.246 Q 691.358 28.418 690.674 30.005 Q 689.99 31.592 689.99 33.398 L 689.99 35.205 L 683.985 34.229 L 683.985 33.74 A 14.387 14.387 0 0 1 685.132 28.027 A 14.758 14.758 0 0 1 688.281 23.34 Q 690.283 21.338 692.969 20.19 A 14.387 14.387 0 0 1 698.682 19.043 L 702.197 19.043 A 14.387 14.387 0 0 1 707.91 20.19 A 14.758 14.758 0 0 1 712.598 23.34 Q 714.6 25.342 715.747 28.027 A 14.387 14.387 0 0 1 716.895 33.74 L 716.895 70.02 Z M 64.6 70.996 L 63.086 70.996 A 14.523 14.523 0 0 1 57.587 69.959 A 13.976 13.976 0 0 1 56.836 69.629 Q 53.955 68.262 51.904 65.82 L 51.904 90.039 L 45.899 90.039 L 45.899 20.02 L 47.901 20.02 L 51.172 25.098 A 15.011 15.011 0 0 1 56.323 20.679 Q 59.424 19.043 63.086 19.043 L 64.6 19.043 A 14.387 14.387 0 0 1 70.313 20.19 A 14.758 14.758 0 0 1 75 23.34 Q 77.002 25.342 78.15 28.027 A 14.387 14.387 0 0 1 79.297 33.74 L 79.297 56.299 A 14.387 14.387 0 0 1 78.15 62.012 A 14.758 14.758 0 0 1 75 66.699 Q 72.998 68.701 70.313 69.849 A 14.387 14.387 0 0 1 64.6 70.996 Z M 671.485 70.02 L 669.483 70.02 L 666.162 64.941 A 15.08 15.08 0 0 1 661.035 69.36 Q 657.959 70.996 654.297 70.996 L 652.783 70.996 A 14.387 14.387 0 0 1 647.07 69.849 A 14.758 14.758 0 0 1 642.383 66.699 Q 640.381 64.697 639.234 62.012 A 14.387 14.387 0 0 1 638.086 56.299 L 638.086 33.74 A 14.387 14.387 0 0 1 639.234 28.027 A 14.758 14.758 0 0 1 642.383 23.34 Q 644.385 21.338 647.07 20.19 A 14.387 14.387 0 0 1 652.783 19.043 L 654.297 19.043 A 14.523 14.523 0 0 1 659.796 20.08 A 13.976 13.976 0 0 1 660.547 20.41 Q 663.428 21.777 665.479 24.219 L 665.479 0 L 671.485 0 L 671.485 70.02 Z M 157.422 25.732 L 151.416 25.732 Q 149.61 25.732 148.023 26.416 A 8.758 8.758 0 0 0 145.264 28.271 Q 144.092 29.443 143.408 31.03 Q 142.725 32.617 142.725 34.424 L 142.725 70.02 L 136.719 70.02 L 136.719 20.02 L 138.721 20.02 L 141.992 25.098 A 15.011 15.011 0 0 1 147.144 20.679 Q 150.244 19.043 153.906 19.043 L 157.422 19.043 L 157.422 25.732 Z M 332.227 25.732 L 326.221 25.732 Q 324.414 25.732 322.827 26.416 A 8.758 8.758 0 0 0 320.069 28.271 Q 318.897 29.443 318.213 31.03 Q 317.529 32.617 317.529 34.424 L 317.529 70.02 L 311.524 70.02 L 311.524 20.02 L 313.526 20.02 L 316.797 25.098 A 15.011 15.011 0 0 1 321.948 20.679 Q 325.049 19.043 328.711 19.043 L 332.227 19.043 L 332.227 25.732 Z M 250.635 84.326 L 305.615 84.326 L 305.615 90.039 L 250.635 90.039 L 250.635 84.326 Z M 782.324 70.02 L 776.319 70.02 L 776.319 20.02 L 782.324 20.02 L 782.324 70.02 Z M 73.291 56.641 L 73.291 33.398 Q 73.291 31.592 72.608 30.005 A 8.758 8.758 0 0 0 70.752 27.246 Q 69.58 26.074 67.993 25.391 Q 66.406 24.707 64.6 24.707 L 60.596 24.707 Q 58.789 24.707 57.202 25.391 A 8.758 8.758 0 0 0 54.444 27.246 Q 53.272 28.418 52.588 30.005 Q 51.904 31.592 51.904 33.398 L 51.904 56.641 Q 51.904 58.447 52.588 60.034 A 8.758 8.758 0 0 0 54.444 62.793 Q 55.615 63.965 57.202 64.648 Q 58.789 65.332 60.596 65.332 L 64.6 65.332 Q 66.406 65.332 67.993 64.648 A 8.758 8.758 0 0 0 70.752 62.793 Q 71.924 61.621 72.608 60.034 Q 73.291 58.447 73.291 56.641 Z M 665.479 56.641 L 665.479 33.398 Q 665.479 31.592 664.795 30.005 A 8.758 8.758 0 0 0 662.94 27.246 Q 661.768 26.074 660.181 25.391 Q 658.594 24.707 656.787 24.707 L 652.783 24.707 Q 650.977 24.707 649.39 25.391 A 8.758 8.758 0 0 0 646.631 27.246 Q 645.459 28.418 644.776 30.005 Q 644.092 31.592 644.092 33.398 L 644.092 56.641 Q 644.092 58.447 644.776 60.034 A 8.758 8.758 0 0 0 646.631 62.793 Q 647.803 63.965 649.39 64.648 Q 650.977 65.332 652.783 65.332 L 656.787 65.332 Q 658.594 65.332 660.181 64.648 A 8.758 8.758 0 0 0 662.94 62.793 Q 664.111 61.621 664.795 60.034 Q 665.479 58.447 665.479 56.641 Z M 118.701 56.641 L 118.701 45.801 L 106.006 45.801 Q 104.199 45.801 102.612 46.484 Q 101.026 47.168 99.854 48.364 A 9.058 9.058 0 0 0 97.998 51.147 Q 97.315 52.734 97.315 54.541 L 97.315 56.641 Q 97.315 58.447 97.998 60.034 A 8.758 8.758 0 0 0 99.854 62.793 Q 101.026 63.965 102.612 64.648 Q 104.199 65.332 106.006 65.332 L 110.01 65.332 Q 111.817 65.332 113.403 64.648 A 8.758 8.758 0 0 0 116.162 62.793 Q 117.334 61.621 118.018 60.034 Q 118.701 58.447 118.701 56.641 Z M 367.627 56.641 L 367.627 45.801 L 354.932 45.801 Q 353.125 45.801 351.538 46.484 Q 349.951 47.168 348.779 48.364 A 9.058 9.058 0 0 0 346.924 51.147 Q 346.24 52.734 346.24 54.541 L 346.24 56.641 Q 346.24 58.447 346.924 60.034 A 8.758 8.758 0 0 0 348.779 62.793 Q 349.951 63.965 351.538 64.648 Q 353.125 65.332 354.932 65.332 L 358.936 65.332 Q 360.742 65.332 362.329 64.648 A 8.758 8.758 0 0 0 365.088 62.793 Q 366.26 61.621 366.944 60.034 Q 367.627 58.447 367.627 56.641 Z M 574.658 56.641 L 574.658 45.801 L 561.963 45.801 Q 560.156 45.801 558.57 46.484 Q 556.983 47.168 555.811 48.364 A 9.058 9.058 0 0 0 553.955 51.147 Q 553.272 52.734 553.272 54.541 L 553.272 56.641 Q 553.272 58.447 553.955 60.034 A 8.758 8.758 0 0 0 555.811 62.793 Q 556.983 63.965 558.57 64.648 Q 560.156 65.332 561.963 65.332 L 565.967 65.332 Q 567.774 65.332 569.361 64.648 A 8.758 8.758 0 0 0 572.119 62.793 Q 573.291 61.621 573.975 60.034 Q 574.658 58.447 574.658 56.641 Z M 710.889 56.641 L 710.889 45.801 L 698.194 45.801 Q 696.387 45.801 694.8 46.484 Q 693.213 47.168 692.041 48.364 A 9.058 9.058 0 0 0 690.186 51.147 Q 689.502 52.734 689.502 54.541 L 689.502 56.641 Q 689.502 58.447 690.186 60.034 A 8.758 8.758 0 0 0 692.041 62.793 Q 693.213 63.965 694.8 64.648 Q 696.387 65.332 698.194 65.332 L 702.197 65.332 Q 704.004 65.332 705.591 64.648 A 8.758 8.758 0 0 0 708.35 62.793 Q 709.522 61.621 710.205 60.034 Q 710.889 58.447 710.889 56.641 Z M 782.813 8.008 L 775.83 8.008 L 775.83 0 L 782.813 0 L 782.813 8.008 Z" vector-effect="non-scaling-stroke"/></g></svg>